{
	"asset":{
		"version":"2.0",
		"generator":"Created using the official Cinema 4D glTF Exporter 1.000x284978"
	},
	"scenes":[{
		"nodes":[0]
	}],
	"nodes":[{
		"name":"Low",
		"translation":[0.00003657916749943979,
		2.4805727005004885,
		-0.5720893740653992],
		"rotation":[0.0,
		0.0,
		0.0,
		-1.0],
		"scale":[1.0,
		1.0,
		1.0],
		"mesh":0
	}],
	"meshes":[{
		"name":"Low",
		"primitives":[{
			"attributes":{
				"POSITION":1,
				"NORMAL":2,
				"TEXCOORD_0":3
			},
			"indices":0,
			"material":0
		}]
	}],
	"accessors":[{
		"bufferView":0,
		"max":[9170],
		"type":"SCALAR",
		"componentType":5123,
		"count":34920,
		"byteOffset":0,
		"min":[0]
	},
	{
		"bufferView":1,
		"max":[7.46687650680542,
		1.746880292892456,
		2.198106527328491],
		"type":"VEC3",
		"componentType":5126,
		"count":9171,
		"byteOffset":0,
		"min":[-7.4677863121032719,
		-2.4798762798309328,
		-13.631912231445313]
	},
	{
		"bufferView":1,
		"max":[0.9999197125434876,
		0.9999385476112366,
		0.9999979734420776],
		"type":"VEC3",
		"componentType":5126,
		"count":9171,
		"byteOffset":12,
		"min":[-0.9999000430107117,
		-0.999999463558197,
		-0.9999849796295166]
	},
	{
		"bufferView":1,
		"max":[0.993790328502655,
		0.7915024757385254],
		"type":"VEC2",
		"componentType":5126,
		"count":9171,
		"byteOffset":24,
		"min":[0.0018936977721750737,
		0.2084127962589264]
	}],
	"bufferViews":[{
		"buffer":0,
		"byteOffset":0,
		"byteLength":69840,
		"target":34963
	},
	{
		"buffer":0,
		"byteOffset":69840,
		"byteLength":293472,
		"target":34962,
		"byteStride":32
	}],
	"buffers":[{
		"uri":"data:application/octet-stream;base64,",
		"byteLength":363312
	}],
	"materials":[{
		"pbrMetallicRoughness":{
			"baseColorFactor":[0.8,
			0.8,
			0.8,
			1.0],
			"metallicFactor":0.0,
			"roughnessFactor":0.5
		},
		"name":"Mat",
		"emissiveFactor":[0.0,
		0.0,
		0.0],
		"alphaMode":"OPAQUE",
		"doubleSided":false
	}]
}