{
	"asset":{
		"version":"2.0",
		"generator":"Created using the official Cinema 4D glTF Exporter 1.000x284978"
	},
	"scenes":[{
		"nodes":[0]
	}],
	"nodes":[{
		"name":"Retopo_DresdenGlassesWLens_V2",
		"translation":[0.002710551954805851,
		1.6214942932128907,
		-0.5915150046348572],
		"rotation":[-5.431852884152377e-17,
		0.0,
		0.0,
		-1.0],
		"scale":[1.0,
		1.0,
		1.0],
		"mesh":0
	}],
	"meshes":[{
		"name":"Retopo_DresdenGlassesWLens_V2",
		"primitives":[{
			"attributes":{
				"POSITION":1,
				"NORMAL":2
			},
			"indices":0
		}]
	}],
	"accessors":[{
		"bufferView":0,
		"max":[471],
		"type":"SCALAR",
		"componentType":5123,
		"count":2568,
		"byteOffset":0,
		"min":[0]
	},
	{
		"bufferView":1,
		"max":[6.4824113845825199,
		2.4046897888183595,
		1.947070598602295],
		"type":"VEC3",
		"componentType":5126,
		"count":472,
		"byteOffset":0,
		"min":[-6.4781270027160648,
		-1.4435081481933594,
		0.9132468700408936]
	},
	{
		"bufferView":1,
		"max":[0.3699426054954529,
		0.08548907190561295,
		-0.9281026124954224],
		"type":"VEC3",
		"componentType":5126,
		"count":472,
		"byteOffset":12,
		"min":[-0.3703373968601227,
		0.03146109730005264,
		-0.9994273781776428]
	}],
	"bufferViews":[{
		"buffer":0,
		"byteOffset":0,
		"byteLength":5136,
		"target":34963
	},
	{
		"buffer":0,
		"byteOffset":5136,
		"byteLength":11328,
		"target":34962,
		"byteStride":24
	}],
	"buffers":[{
		"uri":"data:application/octet-stream;base64,",
		"byteLength":16464
	}]
}